<svg width="175" height="147" viewBox="0 0 175 147" fill="none" xmlns="http://www.w3.org/2000/svg">
<path d="M58.3577 0.000460202C58.6414 0.00110192 58.6414 0.00110192 58.9309 0.0017566C70.4716 0.0435944 81.4923 4.07911 90.266 11.7744C90.4115 11.9003 90.5569 12.0262 90.7068 12.1559C93.3434 14.5005 95.8173 17.0316 97.8801 19.9132C98.0473 20.1415 98.2146 20.3697 98.3819 20.5979C99.5613 22.2238 100.614 23.9106 101.59 25.6699C101.673 25.82 101.757 25.97 101.843 26.1247C105.537 32.8086 107.837 40.5451 107.877 48.2516C107.878 48.4298 107.879 48.608 107.881 48.7917C107.884 49.3638 107.885 49.9359 107.886 50.5081C107.886 50.7037 107.886 50.8994 107.886 51.101C107.883 54.0493 107.79 56.9083 107.251 59.8131C107.219 59.9974 107.186 60.1817 107.153 60.3717C105.289 70.7419 99.7441 81.5994 91.6746 88.4283C91.3336 88.7175 91.0001 89.0157 90.6694 89.3169C82.2104 96.9917 71.0741 101.127 59.8097 101.5C59.496 101.512 59.496 101.512 59.176 101.524C53.8288 101.631 48.4897 100.79 43.4102 99.1174C43.2584 99.0676 43.1067 99.0178 42.9503 98.9665C36.7085 96.8721 30.9294 93.4419 26.0345 88.9936C25.932 88.9006 25.8296 88.8077 25.7241 88.7119C23.9646 87.1077 22.2983 85.4808 20.8181 83.6021C20.5297 83.2371 20.2371 82.8755 19.9395 82.5181C13.9633 75.3184 10.2915 65.9479 9.24444 56.637C9.22604 56.4798 9.20763 56.3226 9.18867 56.1606C9.0087 54.433 9.00168 52.7024 9.0004 50.9671C9.00027 50.8055 9.00014 50.6438 9 50.4773C9.01622 37.8755 13.5502 25.9088 21.9163 16.6014C22.2665 16.2074 22.6011 15.8052 22.9351 15.3972C26.6289 11.116 31.4553 7.85087 36.3818 5.22367C36.5913 5.11049 36.5913 5.11049 36.805 4.99502C43.4575 1.44512 50.8964 -0.0299527 58.3577 0.000460202ZM44.7768 6.81173C44.6418 6.8551 44.5068 6.89848 44.3677 6.94316C38.4255 8.91221 33.0485 12.3089 28.5107 16.6386C28.0643 17.0608 27.61 17.4657 27.1448 17.8661C26.52 18.4194 25.9732 19.0079 25.4396 19.6519C25.1625 19.986 24.8789 20.3147 24.5916 20.6398C19.5492 26.3995 16.1219 33.7065 14.5523 41.2155C14.5143 41.3975 14.4762 41.5795 14.437 41.767C13.8594 44.7073 13.6599 47.6156 13.6738 50.6073C13.6742 50.7718 13.6746 50.9362 13.6751 51.1057C13.7208 62.3024 17.7569 73.1482 25.2482 81.4077C25.5996 81.7981 25.9331 82.1978 26.2663 82.6042C31.0862 88.189 37.9203 92.1949 44.7768 94.5518C44.9901 94.6257 44.9901 94.6257 45.2078 94.7012C56.3116 98.4732 68.5528 96.9354 78.9059 91.7006C84.887 88.5974 90.4422 83.8278 94.3659 78.2742C94.589 77.9645 94.589 77.9645 94.8166 77.6485C97.7051 73.5306 99.9227 69.011 101.394 64.1802C101.44 64.0306 101.486 63.8809 101.534 63.7267C101.863 62.6311 102.133 61.5281 102.37 60.4086C102.409 60.2283 102.448 60.0479 102.487 59.8621C103.717 53.7948 103.66 47.0042 102.37 40.9549C102.311 40.666 102.311 40.666 102.25 40.3713C100.487 32.0924 96.1931 24.6036 90.4612 18.5236C90.3141 18.3659 90.3141 18.3659 90.1639 18.2049C88.7199 16.664 87.2085 15.2861 85.5288 14.0157C85.308 13.8488 85.0882 13.6806 84.8695 13.511C77.2697 7.61865 68.0604 4.73174 58.5651 4.75222C58.3763 4.75233 58.1874 4.75244 57.9929 4.75255C53.4154 4.76455 49.1504 5.40425 44.7768 6.81173Z" fill="#009FC3"/>
<path d="M148.25 7.01025C148.576 7.60861 148.737 8.15184 148.864 8.822C148.904 9.02855 148.943 9.2351 148.984 9.44791C149.027 9.67436 149.069 9.90081 149.113 10.1341C149.182 10.495 149.182 10.495 149.252 10.8631C149.352 11.3904 149.453 11.9177 149.552 12.4452C149.713 13.2977 149.875 14.1498 150.037 15.002C150.272 16.2323 150.505 17.4629 150.738 18.6935C151.109 20.6506 151.481 22.6074 151.854 24.5642C151.885 24.728 151.916 24.8918 151.948 25.0606C152.075 25.7249 152.201 26.3893 152.328 27.0536C152.52 28.0598 152.711 29.0659 152.903 30.0721C154.026 35.9762 155.165 41.8773 156.31 47.7772C158.291 57.9841 160.249 68.1956 162.198 78.4089C162.309 78.9899 162.42 79.571 162.531 80.1521C162.558 80.2943 162.586 80.4366 162.614 80.5831C162.668 80.8683 162.722 81.1535 162.777 81.4386C162.91 82.138 163.044 82.8374 163.177 83.5368C163.72 86.3806 164.264 89.2238 164.819 92.0651C164.896 92.4631 164.974 92.8611 165.051 93.2592C165.291 94.4913 165.532 95.7233 165.775 96.9549C165.859 97.3878 165.943 97.8207 166.028 98.2536C166.067 98.4488 166.105 98.644 166.145 98.8451C166.18 99.0246 166.215 99.2042 166.251 99.3892C166.281 99.5438 166.312 99.6985 166.343 99.8578C166.407 100.309 166.407 100.309 166.407 101.301C144.18 101.301 121.953 101.301 99.0518 101.301C99.0518 101.17 99.0518 101.039 99.0518 100.904C99.4031 100.602 99.7555 100.324 100.126 100.048C101.153 99.2637 102.158 98.4571 103.152 97.6287C104.283 96.688 105.429 95.7748 106.591 94.8744C107.524 94.1447 108.433 93.3835 109.342 92.6241C109.531 92.4667 109.531 92.4668 109.724 92.3062C109.891 92.1661 109.891 92.1661 110.062 92.0232C110.94 91.3209 111.601 91.3179 112.677 91.3204C112.854 91.3193 113.032 91.3181 113.215 91.3169C113.812 91.3135 114.409 91.313 115.006 91.3124C115.433 91.3106 115.86 91.3085 116.287 91.3064C117.449 91.3009 118.611 91.2979 119.772 91.2954C120.985 91.2923 122.199 91.2869 123.412 91.2819C125.449 91.2736 127.486 91.2667 129.523 91.2609C131.621 91.2549 133.719 91.2481 135.817 91.2402C136.011 91.2395 136.011 91.2395 136.209 91.2387C136.858 91.2363 137.506 91.2338 138.155 91.2313C143.538 91.2108 148.92 91.1931 154.303 91.1772C154.272 91.0187 154.242 90.8603 154.211 90.697C153.255 85.6771 152.3 80.657 151.344 75.6369C151.228 75.0264 151.112 74.4159 150.996 73.8054C149.259 64.6813 147.525 55.5568 145.805 46.4294C145.741 46.0853 145.676 45.7411 145.611 45.397C145.032 42.3248 144.454 39.2525 143.876 36.1799C143.654 34.997 143.432 33.8142 143.209 32.6314C143.082 31.9549 142.955 31.2785 142.828 30.602C142.692 29.8757 142.555 29.1495 142.418 28.4233C142.379 28.2108 142.339 27.9983 142.298 27.7794C142.262 27.5867 142.225 27.394 142.188 27.1955C142.157 27.029 142.125 26.8625 142.093 26.691C142.004 26.232 142.004 26.232 141.808 25.6699C141.614 26.0629 141.421 26.456 141.222 26.8609C141.027 26.4639 141.027 26.4639 141.229 25.8054C141.336 25.5146 141.444 25.2245 141.554 24.9348C141.613 24.7748 141.672 24.6149 141.733 24.4501C141.931 23.9132 142.132 23.3772 142.332 22.8412C142.544 22.2705 142.755 21.6996 142.966 21.1287C143.117 20.7209 143.269 20.3131 143.42 19.9054C144.027 18.2672 144.626 16.6258 145.221 14.9831C145.31 14.7384 145.399 14.4937 145.49 14.2416C145.844 13.2674 146.197 12.2932 146.55 11.3187C146.796 10.6366 147.044 9.95475 147.292 9.27292C147.404 8.96335 147.404 8.96335 147.518 8.64753C147.62 8.36653 147.62 8.36653 147.724 8.07985C147.784 7.9156 147.843 7.75136 147.904 7.58214C148.055 7.20876 148.055 7.20876 148.25 7.01025ZM146.689 24.6774C146.799 26.3745 147.073 28.0154 147.395 29.683C147.448 29.9631 147.502 30.2431 147.555 30.5231C147.67 31.1285 147.785 31.7337 147.901 32.3388C148.091 33.3239 148.278 34.3092 148.466 35.2947C148.738 36.7255 149.011 38.1563 149.285 39.5869C149.717 41.8487 150.148 44.1107 150.579 46.3729C150.615 46.5635 150.652 46.7541 150.689 46.9504C150.837 47.7287 150.985 48.507 151.134 49.2853C151.361 50.4772 151.588 51.669 151.815 52.8608C152.942 58.779 154.064 64.6983 155.181 70.6185C155.219 70.8165 155.256 71.0146 155.294 71.2186C155.771 73.7454 156.248 76.2722 156.724 78.7991C156.939 79.9384 157.153 81.0776 157.368 82.2168C157.403 82.4027 157.438 82.5885 157.474 82.78C157.646 83.6913 157.818 84.6026 157.99 85.5139C158.056 85.863 158.121 86.212 158.187 86.5611C158.219 86.7305 158.251 86.8998 158.284 87.0744C158.47 88.0599 158.656 89.0454 158.841 90.031C158.954 90.6286 159.067 91.2261 159.179 91.8237C159.231 92.0977 159.282 92.3717 159.334 92.6458C159.404 93.0177 159.474 93.3897 159.544 93.7617C159.603 94.0718 159.603 94.0718 159.662 94.3883C159.761 94.9064 159.862 95.424 159.964 95.9414C159.8 95.942 159.635 95.9427 159.465 95.9433C155.464 95.9594 151.462 95.9777 147.461 95.9984C145.526 96.0084 143.59 96.0176 141.655 96.0251C139.969 96.0316 138.283 96.0395 136.597 96.0491C135.704 96.0541 134.81 96.0584 133.917 96.0611C133.077 96.0637 132.237 96.068 131.397 96.0738C131.088 96.0756 130.779 96.0768 130.47 96.0772C130.05 96.0778 129.629 96.0809 129.209 96.0846C128.973 96.0857 128.737 96.0868 128.494 96.0879C127.919 96.0826 127.919 96.0826 127.556 96.5369C138.508 96.5369 149.461 96.5369 160.745 96.5369C160.602 95.1562 160.602 95.1562 160.385 93.7995C160.354 93.6327 160.322 93.4659 160.289 93.2941C160.255 93.1167 160.22 92.9393 160.185 92.7566C160.147 92.5632 160.11 92.3698 160.072 92.1705C159.948 91.5244 159.823 90.8786 159.698 90.2327C159.608 89.7659 159.519 89.2991 159.429 88.8323C159.235 87.8226 159.04 86.813 158.845 85.8035C158.559 84.3203 158.273 82.8369 157.988 81.3535C157.514 78.8923 157.04 76.4311 156.566 73.9701C155.89 70.4687 155.216 66.967 154.542 63.4654C154.277 62.0897 154.012 60.714 153.747 59.3383C153.704 59.1121 153.704 59.1121 153.659 58.8813C153.223 56.6146 152.787 54.3479 152.35 52.0813C152.321 51.934 152.293 51.7867 152.264 51.635C152.15 51.0451 152.037 50.4553 151.923 49.8655C150.746 43.7567 149.571 37.6477 148.397 31.5383C148.344 31.2625 148.344 31.2625 148.29 30.9812C147.886 28.8799 147.482 26.7787 147.079 24.6774C146.95 24.6774 146.821 24.6774 146.689 24.6774Z" fill="#00D6EC"/>
<path d="M58.3701 5.16169C58.5224 5.16205 58.6746 5.16241 58.8315 5.16278C69.5769 5.20552 79.518 9.30383 87.533 16.5386C87.7263 16.7108 87.9196 16.883 88.1187 17.0605C89.1789 18.0198 90.1396 19.0047 91.0472 20.1117C91.2073 20.2967 91.3673 20.4818 91.5322 20.6724C98.6168 28.8976 102.41 39.6115 102.42 50.5081C102.42 50.6465 102.42 50.7849 102.42 50.9275C102.406 60.0147 99.8077 69.2577 94.5614 76.6862C94.4319 76.87 94.4319 76.87 94.2998 77.0575C93.1365 78.6991 91.9246 80.2513 90.5538 81.7187C90.2086 82.0946 89.8853 82.4683 89.5662 82.8655C89.1854 83.326 88.8254 83.7085 88.375 84.093C87.9485 84.4609 87.5287 84.8292 87.122 85.2197C81.793 90.3209 74.7621 93.7128 67.6559 95.3086C67.4838 95.3473 67.3118 95.386 67.1345 95.4259C64.297 96.0264 61.5153 96.2153 58.6264 96.2019C58.4596 96.2015 58.2928 96.2011 58.121 96.2006C47.2536 96.156 36.7387 92.0737 28.886 84.3393C28.662 84.1188 28.4368 83.8997 28.2107 83.6815C26.2259 81.7625 24.4963 79.7508 22.911 77.4802C22.8241 77.3568 22.7371 77.2333 22.6475 77.1061C15.9003 67.4435 13.1816 55.213 15.0019 43.518C15.4709 40.7418 16.1107 38.0458 17.054 35.3968C17.1101 35.2386 17.1661 35.0804 17.2239 34.9175C21.354 23.4611 29.83 14.2208 40.6443 8.9953C46.2707 6.38095 52.2038 5.13094 58.3701 5.16169ZM51.0245 10.5834C50.8633 10.6175 50.7021 10.6515 50.5361 10.6866C40.3874 12.9021 31.4673 19.3796 25.7579 28.1551C22.3669 33.4998 20.128 39.5901 19.3968 45.9176C19.3752 46.0886 19.3535 46.2595 19.3312 46.4356C18.2234 56.9692 21.2597 67.8368 27.7918 76.0907C27.9491 76.291 28.1064 76.4914 28.2685 76.6978C30.4732 79.4527 32.9586 81.9563 35.7964 84.031C35.9076 84.1132 36.0188 84.1954 36.1335 84.2801C42.6524 89.0469 50.3662 91.4756 58.3701 91.4378C58.5333 91.4373 58.6965 91.4369 58.8646 91.4365C61.365 91.426 63.8044 91.3432 66.2527 90.7802C66.4243 90.7408 66.596 90.7013 66.7729 90.6607C72.827 89.2157 78.5183 86.388 83.2379 82.2444C83.3879 82.1136 83.5379 81.9829 83.6924 81.8482C84.2008 81.3938 84.6968 80.9289 85.1902 80.4578C85.2929 80.3602 85.3957 80.2625 85.5015 80.1618C92.961 73.0086 97.4399 62.7249 97.74 52.3195C97.9634 41.0403 94.2035 30.4488 86.5355 22.2178C84.8994 20.5 83.2007 18.9205 81.2856 17.5311C81.1715 17.4482 81.0574 17.3652 80.9399 17.2797C75.8175 13.5974 69.9622 11.0179 63.7146 10.1864C63.5078 10.1583 63.5078 10.1583 63.2968 10.1297C61.7282 9.94304 60.1547 9.93956 58.5776 9.93826C58.3571 9.93806 58.3571 9.93806 58.1322 9.93785C55.7208 9.94133 53.3907 10.0768 51.0245 10.5834Z" fill="#00A0C3"/>
<path d="M71.9143 15.1489C79.9729 17.5944 86.6328 24.4975 90.6157 31.7962C93.3053 36.87 95.1363 42.6282 95.1935 48.4291C95.1954 48.5898 95.1972 48.7504 95.1992 48.916C95.204 49.4342 95.2065 49.9525 95.208 50.4708C95.2085 50.6476 95.2091 50.8244 95.2097 51.0066C95.2125 54.8058 94.7136 58.316 93.7803 61.9966C93.3222 61.5763 93.0861 61.2288 92.8737 60.6415C92.7887 60.4104 92.7887 60.4104 92.7021 60.1747C92.6419 60.0059 92.5817 59.8372 92.5197 59.6633C92.4543 59.4843 92.389 59.3054 92.3216 59.121C92.1787 58.7289 92.0364 58.3366 91.8948 57.9441C91.5843 57.0834 91.2701 56.2241 90.9562 55.3647C90.7886 54.9059 90.6212 54.4469 90.4539 53.9879C89.6126 51.6806 88.7542 49.3801 87.8937 47.0802C87.4465 45.8849 87 44.6892 86.5537 43.4935C86.5079 43.3709 86.4621 43.2483 86.4149 43.1219C84.9676 39.2441 83.5316 35.3619 82.095 31.48C81.8824 30.9056 81.6698 30.3312 81.4571 29.7568C81.3106 29.3609 81.1642 28.965 81.0178 28.5691C80.9299 28.3317 80.842 28.0943 80.7514 27.8496C80.675 27.6432 80.5987 27.4368 80.52 27.2242C80.3248 26.7038 80.1229 26.1867 79.9188 25.6698C78.2053 34.4682 76.5119 43.2704 74.8432 52.0777C74.5215 53.7753 74.1993 55.4727 73.8769 57.1701C72.8685 62.4803 71.8607 67.7905 70.8601 73.1022C70.5691 74.6468 70.2773 76.1913 69.9853 77.7356C69.7611 78.9215 69.5381 80.1075 69.3161 81.2937C69.1824 82.0064 69.0476 82.7189 68.9125 83.4314C68.8514 83.755 68.7907 84.0787 68.7306 84.4024C68.6499 84.8362 68.5677 85.2696 68.485 85.7029C68.4399 85.9427 68.3949 86.1826 68.3484 86.4296C68.2048 87.0084 68.2048 87.0084 67.8144 87.604C67.2677 87.754 66.7615 87.8575 66.2037 87.9389C66.0372 87.9642 65.8706 87.9895 65.699 88.0156C63.171 88.3509 60.5962 88.25 58.0527 88.1995C58.1632 86.4406 58.4623 84.7377 58.7983 83.0109C58.8557 82.7114 58.913 82.4118 58.9703 82.1123C59.0942 81.4651 59.2188 80.818 59.3439 80.171C59.547 79.1207 59.7486 78.07 59.95 77.0194C60.2417 75.4989 60.5341 73.9786 60.827 72.4584C61.2885 70.0626 61.7486 67.6666 62.2082 65.2705C62.2468 65.0695 62.2854 64.8685 62.3251 64.6614C62.5217 63.6366 62.7182 62.6118 62.9148 61.587C63.0744 60.755 63.234 59.9231 63.3937 59.0911C65.1109 50.1442 66.8102 41.1937 68.5047 32.2423C68.676 31.3376 68.8473 30.4328 69.0186 29.5281C69.0859 29.1725 69.1533 28.8169 69.2206 28.4613C69.3512 27.7714 69.4818 27.0815 69.6125 26.3916C69.6754 26.0592 69.7383 25.7269 69.8013 25.3945C69.8318 25.2332 69.8624 25.0719 69.8938 24.9057C70.0704 23.9733 70.2468 23.041 70.4231 22.1086C70.5302 21.5426 70.6373 20.9766 70.7445 20.4105C70.8162 20.0315 70.8878 19.6525 70.9595 19.2735C71.0437 18.8287 71.1282 18.3839 71.213 17.9393C71.2896 17.5373 71.3652 17.1352 71.4399 16.7328C71.4741 16.5519 71.5082 16.371 71.5434 16.1847C71.5728 16.0269 71.6022 15.8692 71.6325 15.7067C71.719 15.3474 71.719 15.3474 71.9143 15.1489ZM75.2332 22.0967C73.191 32.7275 71.155 43.3596 69.1254 53.993C68.8821 55.268 68.6386 56.5429 68.3951 57.8179C67.6615 61.6594 66.9283 65.5009 66.1963 69.3427C65.8856 70.9737 65.5744 72.6046 65.2623 74.2353C65.0483 75.3541 64.8349 76.4729 64.6219 77.5919C64.5377 78.0337 64.4532 78.4755 64.3684 78.9173C64.2552 79.5072 64.1429 80.0972 64.0309 80.6873C63.9982 80.8566 63.9655 81.0258 63.9318 81.2001C63.8005 81.8961 63.7145 82.5254 63.7145 83.2368C63.8433 83.2368 63.9722 83.2368 64.1049 83.2368C65.2658 77.3896 66.4081 71.539 67.5208 65.6821C67.5478 65.5397 67.5749 65.3973 67.6027 65.2506C67.9986 63.1665 68.3936 61.0822 68.7883 58.9978C68.9364 58.2161 69.0845 57.4343 69.2326 56.6526C69.2623 56.4959 69.292 56.3391 69.3226 56.1776C69.4432 55.5416 69.5637 54.9056 69.6842 54.2695C69.7747 53.7919 69.8652 53.3142 69.9558 52.8365C69.9856 52.6789 70.0155 52.5213 70.0463 52.3589C70.2266 51.4072 70.4069 50.4554 70.5871 49.5037C71.3226 45.6202 72.0618 41.7375 72.805 37.8555C73.083 36.402 73.3603 34.9483 73.6374 33.4946C73.8929 32.1553 74.1497 30.8162 74.4075 29.4773C74.5637 28.6643 74.7186 27.851 74.873 27.0376C74.9439 26.6656 75.0154 26.2937 75.0876 25.922C75.1846 25.4213 75.2796 24.9203 75.3742 24.4192C75.4028 24.2742 75.4314 24.1291 75.4609 23.9797C75.5871 23.2989 75.6757 22.755 75.4284 22.0967C75.364 22.0967 75.2996 22.0967 75.2332 22.0967Z" fill="#00ABCC"/>
<path d="M134.975 1.84912C137.358 1.84912 139.742 1.84912 142.198 1.84912C142.363 2.56561 142.528 3.28209 142.698 4.02029C142.778 4.35343 142.778 4.35343 142.858 4.6933C142.898 4.87423 142.939 5.05516 142.98 5.24157C143.022 5.42349 143.064 5.60541 143.107 5.79285C143.263 7.23205 142.937 8.4994 142.428 9.83127C142.342 10.0637 142.342 10.0637 142.254 10.3008C142.062 10.8176 141.868 11.3332 141.673 11.8489C141.535 12.2208 141.396 12.5928 141.258 12.9649C141.035 13.567 140.811 14.169 140.586 14.7708C139.983 16.3881 139.391 18.0096 138.802 19.6325C136.975 24.6678 135.108 29.6781 133.073 34.6309C132.145 36.8926 131.25 39.1678 130.35 41.4409C130.01 42.2986 129.67 43.1562 129.33 44.0138C129.14 44.4947 128.949 44.9756 128.759 45.4564C127.912 47.5919 127.063 49.7264 126.213 51.8605C126.114 52.1104 126.114 52.1104 126.012 52.3654C125.683 53.1932 125.353 54.021 125.023 54.8488C124.407 56.395 123.792 57.9413 123.176 59.4876C122.83 60.357 122.484 61.2265 122.138 62.096C122 62.4434 121.861 62.7907 121.723 63.1381C120.893 65.2225 120.893 65.2225 120.686 65.7435C120.548 66.091 120.409 66.4384 120.271 66.7858C119.926 67.6535 119.58 68.5212 119.235 69.3889C118.538 71.1382 117.842 72.8875 117.146 74.6368C116.525 76.1962 115.904 77.7555 115.284 79.3148C114.937 80.1857 114.59 81.0566 114.243 81.9276C113.898 82.7957 113.552 83.6638 113.207 84.5319C113.077 84.8573 112.948 85.1828 112.818 85.5082C112.64 85.9546 112.463 86.401 112.285 86.8473C112.206 87.0455 112.206 87.0455 112.126 87.2476C111.944 87.7041 111.763 88.1559 111.547 88.5966C110.654 88.6411 109.762 88.6733 108.869 88.6948C108.566 88.7037 108.263 88.7159 107.96 88.7314C105.456 88.8565 105.456 88.8565 104.629 88.246C104.272 87.7856 104.004 87.3287 103.737 86.8101C103.558 86.5398 103.376 86.2714 103.191 86.0052C103.026 85.7529 102.863 85.5001 102.7 85.2468C102.616 85.1179 102.533 84.9889 102.447 84.856C102.226 84.5152 102.005 84.1739 101.785 83.8325C101.592 83.5377 101.592 83.5377 101.395 83.237C101.465 82.5938 101.747 82.1368 102.089 81.6C102.191 81.4359 102.294 81.2717 102.4 81.1026C102.511 80.9267 102.622 80.7508 102.737 80.5695C104.531 77.6745 106.092 74.6579 107.447 71.525C108.035 71.8241 108.152 72.3254 108.423 72.9146C109.07 71.1818 109.716 69.449 110.363 67.7162C110.412 67.5854 110.461 67.4546 110.511 67.3198C111.802 63.8591 113.092 60.3978 114.378 56.9348C115.689 53.4012 117.006 49.8696 118.324 46.3385C119.549 43.0562 120.772 39.7732 121.992 36.4886C123.349 32.8314 124.712 29.1763 126.076 25.5216C127.205 22.4979 128.331 19.4733 129.454 16.4471C130.7 13.0874 131.955 9.73113 133.217 6.37756C133.295 6.17089 133.373 5.96423 133.453 5.7513C133.671 5.17136 133.89 4.59154 134.108 4.01176C134.174 3.83812 134.239 3.66449 134.306 3.48559C134.366 3.32729 134.426 3.16899 134.487 3.0059C134.565 2.79902 134.565 2.79902 134.645 2.58796C134.779 2.24613 134.779 2.24613 134.975 1.84912Z" fill="#00CCE4"/>
<path d="M94.6848 91.2854C94.8316 91.2853 94.9783 91.2852 95.1295 91.285C95.6124 91.2856 96.095 91.2918 96.5778 91.298C96.9134 91.2995 97.2491 91.3006 97.5847 91.3014C98.4664 91.3044 99.348 91.3122 100.23 91.321C101.13 91.3292 102.03 91.3328 102.931 91.3368C104.696 91.3453 106.462 91.3588 108.227 91.3755C108.227 91.5066 108.227 91.6376 108.227 91.7726C107.872 92.0784 107.515 92.3608 107.141 92.641C106.906 92.8204 106.672 93 106.438 93.1799C106.315 93.2743 106.192 93.3687 106.065 93.466C105.447 93.9454 104.842 94.4407 104.237 94.9363C102.956 95.9825 101.667 97.0173 100.373 98.0474C99.7654 98.5318 99.1581 99.0169 98.5507 99.5019C98.4391 99.591 98.3274 99.68 98.2124 99.7718C97.5265 100.319 97.5265 100.319 96.8941 100.928C96.0448 101.477 95.294 101.406 94.3072 101.391C94.0042 101.391 94.0042 101.391 93.6951 101.391C93.0285 101.391 92.362 101.385 91.6954 101.378C91.2328 101.377 90.7703 101.376 90.3077 101.375C89.0909 101.372 87.8742 101.364 86.6574 101.355C85.4155 101.347 84.1736 101.344 82.9317 101.34C80.4954 101.331 78.0593 101.318 75.623 101.301C76.0438 100.873 76.2783 100.782 76.8333 100.594C77.0027 100.535 77.1721 100.476 77.3467 100.416C77.5309 100.352 77.7151 100.287 77.9048 100.222C83.0273 98.376 88.6722 95.6417 92.6359 91.7601C93.3309 91.2812 93.875 91.2685 94.6848 91.2854Z" fill="#F7FCFD"/>
<path d="M3.71591 122H1.15909V113.273H3.86932C4.7017 113.273 5.41335 113.446 6.00426 113.793C6.59801 114.139 7.05256 114.636 7.3679 115.284C7.68324 115.932 7.84091 116.709 7.84091 117.615C7.84091 118.53 7.67898 119.315 7.35511 119.972C7.03409 120.625 6.56534 121.126 5.94886 121.476C5.33523 121.825 4.59091 122 3.71591 122ZM1.95597 121.284H3.66903C4.41903 121.284 5.04688 121.136 5.55256 120.841C6.05824 120.545 6.4375 120.124 6.69034 119.575C6.94318 119.027 7.0696 118.374 7.0696 117.615C7.06676 116.862 6.94176 116.214 6.6946 115.672C6.45028 115.129 6.08665 114.713 5.60369 114.423C5.12358 114.134 4.52983 113.989 3.82244 113.989H1.95597V121.284ZM13.2524 122V113.273H18.3149V113.989H14.0492V117.274H18.0464V117.99H14.0492V121.284H18.4001V122H13.2524ZM28.596 115.455C28.5477 114.969 28.3332 114.582 27.9525 114.295C27.5719 114.009 27.0932 113.865 26.5165 113.865C26.1102 113.865 25.7523 113.935 25.4426 114.074C25.1358 114.213 24.8943 114.406 24.7182 114.653C24.5449 114.898 24.4582 115.176 24.4582 115.489C24.4582 115.719 24.5079 115.92 24.6074 116.094C24.7068 116.267 24.8403 116.416 25.0079 116.541C25.1784 116.663 25.3659 116.768 25.5704 116.857C25.7778 116.945 25.9866 117.018 26.1969 117.078L27.1173 117.342C27.3957 117.419 27.6741 117.517 27.9525 117.636C28.231 117.756 28.4852 117.906 28.7153 118.088C28.9483 118.267 29.1344 118.487 29.2736 118.749C29.4156 119.007 29.4866 119.318 29.4866 119.682C29.4866 120.148 29.3659 120.567 29.1244 120.939C28.8829 121.311 28.5363 121.607 28.0846 121.825C27.6329 122.041 27.0917 122.149 26.4611 122.149C25.8673 122.149 25.3517 122.051 24.9142 121.855C24.4767 121.656 24.1329 121.382 23.8829 121.033C23.6329 120.683 23.4923 120.278 23.4611 119.818H24.2792C24.3077 120.162 24.4213 120.453 24.6202 120.692C24.819 120.93 25.0775 121.112 25.3957 121.237C25.7139 121.359 26.069 121.42 26.4611 121.42C26.8957 121.42 27.2821 121.348 27.6202 121.203C27.9611 121.055 28.2281 120.851 28.4213 120.589C28.6173 120.325 28.7153 120.018 28.7153 119.669C28.7153 119.374 28.6386 119.126 28.4852 118.928C28.3318 118.726 28.1173 118.557 27.8417 118.42C27.569 118.284 27.2523 118.163 26.8915 118.058L25.8474 117.751C25.1628 117.547 24.6315 117.264 24.2537 116.903C23.8758 116.543 23.6869 116.082 23.6869 115.523C23.6869 115.054 23.8119 114.642 24.0619 114.287C24.3148 113.929 24.6557 113.651 25.0846 113.452C25.5165 113.25 26.0008 113.149 26.5378 113.149C27.0804 113.149 27.5605 113.249 27.9781 113.447C28.3957 113.646 28.7267 113.92 28.971 114.27C29.2182 114.616 29.3503 115.011 29.3673 115.455H28.596ZM34.8842 122V113.273H39.9467V113.989H35.6811V117.274H39.6783V117.99H35.6811V121.284H40.032V122H34.8842ZM52.2861 113.273V122H51.5106L46.3543 114.692H46.2861V122H45.4892V113.273H46.2606L51.4338 120.589H51.502V113.273H52.2861ZM58.0992 113.273L60.8265 120.964H60.9032L63.6305 113.273H64.4657L61.291 122H60.4387L57.264 113.273H58.0992ZM76.1861 117.636C76.1861 118.545 76.0242 119.337 75.7003 120.01C75.3764 120.68 74.9304 121.2 74.3622 121.57C73.7969 121.936 73.1463 122.119 72.4105 122.119C71.6747 122.119 71.0228 121.936 70.4546 121.57C69.8892 121.2 69.4446 120.68 69.1208 120.01C68.7997 119.337 68.6392 118.545 68.6392 117.636C68.6392 116.727 68.7997 115.937 69.1208 115.267C69.4446 114.594 69.8907 114.074 70.4588 113.707C71.027 113.338 71.6776 113.153 72.4105 113.153C73.1463 113.153 73.7969 113.338 74.3622 113.707C74.9304 114.074 75.3764 114.594 75.7003 115.267C76.0242 115.937 76.1861 116.727 76.1861 117.636ZM75.4105 117.636C75.4105 116.855 75.2799 116.186 75.0185 115.629C74.7571 115.07 74.4006 114.642 73.9489 114.347C73.4972 114.051 72.9844 113.903 72.4105 113.903C71.8395 113.903 71.3282 114.051 70.8764 114.347C70.4247 114.642 70.0668 115.068 69.8026 115.625C69.5412 116.182 69.4105 116.852 69.4105 117.636C69.4105 118.418 69.5412 119.087 69.8026 119.643C70.0639 120.2 70.4205 120.628 70.8722 120.926C71.3239 121.222 71.8367 121.369 72.4105 121.369C72.9844 121.369 73.4972 121.222 73.9489 120.926C74.4034 120.631 74.7614 120.205 75.0228 119.648C75.2841 119.088 75.4134 118.418 75.4105 117.636ZM81.5933 122V113.273H82.3902V121.284H86.5493V122H81.5933ZM91.0158 113.273L93.7431 120.964H93.8198L96.547 113.273H97.3823L94.2075 122H93.3553L90.1806 113.273H91.0158ZM103.155 113.273V122H102.358V113.273H103.155ZM108.955 113.273H109.876L113.042 120.875H113.119L116.285 113.273H117.205V122H116.455V114.956H116.387L113.442 122H112.718L109.773 114.956H109.705V122H108.955V113.273ZM123.005 122V113.273H128.068V113.989H123.802V117.274H127.8V117.99H123.802V121.284H128.153V122H123.005ZM140.407 113.273V122H139.632L134.476 114.692H134.407V122H133.61V113.273H134.382L139.555 120.589H139.623V113.273H140.407ZM145.679 113.989V113.273H152.007V113.989H149.242V122H148.445V113.989H145.679ZM164.073 117.636C164.073 118.545 163.911 119.337 163.587 120.01C163.263 120.68 162.817 121.2 162.249 121.57C161.684 121.936 161.033 122.119 160.297 122.119C159.562 122.119 158.91 121.936 158.341 121.57C157.776 121.2 157.332 120.68 157.008 120.01C156.687 119.337 156.526 118.545 156.526 117.636C156.526 116.727 156.687 115.937 157.008 115.267C157.332 114.594 157.778 114.074 158.346 113.707C158.914 113.338 159.564 113.153 160.297 113.153C161.033 113.153 161.684 113.338 162.249 113.707C162.817 114.074 163.263 114.594 163.587 115.267C163.911 115.937 164.073 116.727 164.073 117.636ZM163.297 117.636C163.297 116.855 163.167 116.186 162.905 115.629C162.644 115.07 162.287 114.642 161.836 114.347C161.384 114.051 160.871 113.903 160.297 113.903C159.726 113.903 159.215 114.051 158.763 114.347C158.312 114.642 157.954 115.068 157.689 115.625C157.428 116.182 157.297 116.852 157.297 117.636C157.297 118.418 157.428 119.087 157.689 119.643C157.951 120.2 158.307 120.628 158.759 120.926C159.211 121.222 159.724 121.369 160.297 121.369C160.871 121.369 161.384 121.222 161.836 120.926C162.29 120.631 162.648 120.205 162.91 119.648C163.171 119.088 163.3 118.418 163.297 117.636Z" fill="#07D7EA"/>
<path d="M14.742 141.426V144H2.08V125.54H14.508V128.114H4.992V133.366H13.234V135.784H4.992V141.426H14.742ZM33.008 144V130.844L27.574 140.828H25.858L20.398 130.844V144H17.486V125.54H20.606L26.716 136.824L32.826 125.54H35.946V144H33.008ZM39.8491 144V125.54H47.5971C48.4291 125.54 49.1917 125.713 49.8851 126.06C50.5784 126.407 51.1851 126.866 51.7051 127.438C52.2251 128.01 52.6237 128.651 52.9011 129.362C53.1784 130.073 53.3171 130.801 53.3171 131.546C53.3171 132.569 53.0831 133.548 52.6151 134.484C52.1644 135.403 51.5144 136.148 50.6651 136.72C49.8331 137.292 48.8624 137.578 47.7531 137.578H42.7611V144H39.8491ZM42.7611 135.004H47.5711C48.1257 135.004 48.6111 134.857 49.0271 134.562C49.4431 134.25 49.7637 133.834 49.9891 133.314C50.2317 132.794 50.3531 132.205 50.3531 131.546C50.3531 130.87 50.2144 130.272 49.9371 129.752C49.6597 129.232 49.2957 128.833 48.8451 128.556C48.4117 128.261 47.9351 128.114 47.4151 128.114H42.7611V135.004ZM55.7883 144V125.54H63.8223C64.6543 125.54 65.4169 125.713 66.1103 126.06C66.8036 126.407 67.4016 126.866 67.9043 127.438C68.4243 128.01 68.8229 128.651 69.1003 129.362C69.3949 130.073 69.5423 130.801 69.5423 131.546C69.5423 132.361 69.3949 133.141 69.1003 133.886C68.8056 134.631 68.381 135.273 67.8263 135.81C67.2889 136.347 66.6563 136.737 65.9283 136.98L70.2703 144H66.9943L62.9903 137.578H58.7003V144H55.7883ZM58.7003 135.004H63.7963C64.3336 135.004 64.8103 134.848 65.2263 134.536C65.6423 134.224 65.9716 133.808 66.2143 133.288C66.457 132.751 66.5783 132.17 66.5783 131.546C66.5783 130.905 66.4396 130.333 66.1623 129.83C65.8849 129.31 65.5209 128.894 65.0703 128.582C64.6369 128.27 64.1603 128.114 63.6403 128.114H58.7003V135.004ZM85.3797 141.426V144H72.7177V125.54H85.1457V128.114H75.6297V133.366H83.8717V135.784H75.6297V141.426H85.3797ZM99.0437 129.882C98.8704 129.691 98.6191 129.492 98.2897 129.284C97.9604 129.059 97.5704 128.851 97.1197 128.66C96.6691 128.469 96.1837 128.313 95.6637 128.192C95.1437 128.071 94.6064 128.01 94.0517 128.01C92.8384 128.01 91.9371 128.235 91.3477 128.686C90.7584 129.137 90.4637 129.761 90.4637 130.558C90.4637 131.147 90.6284 131.615 90.9577 131.962C91.2871 132.291 91.7897 132.569 92.4657 132.794C93.1417 133.019 93.9911 133.262 95.0137 133.522C96.2617 133.817 97.3451 134.172 98.2637 134.588C99.1824 134.987 99.8844 135.524 100.37 136.2C100.855 136.876 101.098 137.769 101.098 138.878C101.098 139.814 100.924 140.62 100.578 141.296C100.231 141.972 99.7457 142.527 99.1217 142.96C98.4977 143.376 97.7784 143.688 96.9637 143.896C96.1491 144.087 95.2737 144.182 94.3377 144.182C93.4191 144.182 92.5004 144.087 91.5817 143.896C90.6804 143.705 89.8137 143.428 88.9817 143.064C88.1671 142.683 87.4131 142.223 86.7197 141.686L88.0457 139.19C88.2711 139.415 88.5917 139.667 89.0077 139.944C89.4411 140.204 89.9351 140.455 90.4897 140.698C91.0617 140.941 91.6771 141.149 92.3357 141.322C93.0117 141.478 93.6964 141.556 94.3897 141.556C95.5511 141.556 96.4351 141.357 97.0417 140.958C97.6657 140.542 97.9777 139.953 97.9777 139.19C97.9777 138.566 97.7784 138.072 97.3797 137.708C96.9811 137.327 96.4004 137.006 95.6377 136.746C94.8751 136.486 93.9651 136.226 92.9077 135.966C91.6944 135.637 90.6804 135.281 89.8657 134.9C89.0511 134.501 88.4357 133.999 88.0197 133.392C87.6211 132.768 87.4217 131.979 87.4217 131.026C87.4217 129.813 87.7164 128.79 88.3057 127.958C88.8951 127.109 89.6924 126.476 90.6977 126.06C91.7204 125.627 92.8644 125.41 94.1297 125.41C94.9617 125.41 95.7504 125.505 96.4957 125.696C97.2411 125.869 97.9344 126.112 98.5757 126.424C99.2344 126.736 99.8324 127.091 100.37 127.49L99.0437 129.882ZM108.707 125.54H111.463L118.639 144H115.571L113.621 138.982H106.497L104.573 144H101.479L108.707 125.54ZM113.049 136.824L110.085 128.738L107.017 136.824H113.049ZM120.662 144V125.54H128.696C129.528 125.54 130.291 125.713 130.984 126.06C131.678 126.407 132.276 126.866 132.778 127.438C133.298 128.01 133.697 128.651 133.974 129.362C134.269 130.073 134.416 130.801 134.416 131.546C134.416 132.361 134.269 133.141 133.974 133.886C133.68 134.631 133.255 135.273 132.7 135.81C132.163 136.347 131.53 136.737 130.802 136.98L135.144 144H131.868L127.864 137.578H123.574V144H120.662ZM123.574 135.004H128.67C129.208 135.004 129.684 134.848 130.1 134.536C130.516 134.224 130.846 133.808 131.088 133.288C131.331 132.751 131.452 132.17 131.452 131.546C131.452 130.905 131.314 130.333 131.036 129.83C130.759 129.31 130.395 128.894 129.944 128.582C129.511 128.27 129.034 128.114 128.514 128.114H123.574V135.004ZM137.592 144V125.54H140.504V144H137.592ZM149.746 125.54H152.502L159.678 144H156.61L154.66 138.982H147.536L145.612 144H142.518L149.746 125.54ZM154.088 136.824L151.124 128.738L148.056 136.824H154.088ZM161.701 144V125.54H164.613V141.426H174.519V144H161.701Z" fill="white"/>
</svg>
